<svg width="27" height="30" viewBox="0 0 27 30" fill="none" xmlns="http://www.w3.org/2000/svg">
    <path fill-rule="evenodd" clip-rule="evenodd"
          d="M6.71778 2.99582C7.52938 2.93818 8.16911 2.29051 8.16911 1.5C8.16911 0.671573 7.46651 0 6.59983 0C5.73314 0 5.03056 0.671573 5.03056 1.5C5.03056 1.93853 5.22743 2.33311 5.54132 2.60739L3.71086 8.20642L0.0355328 19.4486C-0.0828222 19.8106 0.102979 20.1996 0.466638 20.3515L12.7403 25.4727L17.5988 27.4999C17.5893 27.5821 17.5844 27.6654 17.5844 27.75C17.5844 28.9927 18.6383 30 19.9383 30C21.2384 30 22.2922 28.9927 22.2922 27.75C22.2922 26.5073 21.2384 25.5 19.9383 25.5C19.1708 25.5 18.489 25.8511 18.0593 26.3946L13.7692 24.6044C14.3042 23.1888 14.9641 21.641 15.6664 20.091L22.2923 23.2254C22.2922 23.2337 22.2922 23.2419 22.2922 23.25C22.2922 24.4927 23.3461 25.5 24.6461 25.5C25.9461 25.5 27 24.4927 27 23.25C27 22.0073 25.9461 21 24.6461 21C23.8008 21 23.0597 21.4257 22.6446 22.0652L16.1669 19.0007C16.7556 17.7338 17.3599 16.4858 17.9341 15.3286C18.863 15.7518 19.7931 16.1569 20.7233 16.5329C20.7415 17.346 21.4369 18 22.2922 18C23.1589 18 23.8614 17.3284 23.8614 16.5C23.8614 15.6716 23.1589 15 22.2922 15C21.8634 15 21.4747 15.1645 21.1915 15.4309C20.2867 15.0649 19.3799 14.6699 18.4708 14.2557C19.1321 12.9434 19.7269 11.7994 20.1744 10.9499C20.2646 10.7787 20.3488 10.6195 20.4264 10.4733C20.5225 10.4908 20.6216 10.5 20.723 10.5C21.5897 10.5 22.2923 9.82847 22.2923 9.00004C22.2923 8.17161 21.5897 7.50005 20.723 7.50005C19.8564 7.50005 19.1537 8.17161 19.1537 9.00004C19.1537 9.2918 19.2409 9.56411 19.3917 9.79446C19.2938 9.97847 19.1838 10.1861 19.0632 10.415C18.6134 11.2688 18.0157 12.4183 17.3512 13.7372C16.1003 13.1492 14.8446 12.5327 13.5826 11.913L13.5666 11.9051L13.5614 11.9026L13.5611 11.9024C13.4034 11.825 13.2456 11.7475 13.0878 11.67C13.7917 9.96045 14.506 8.18275 15.2715 5.99965C16.5527 5.9788 17.5845 4.97958 17.5845 3.74998C17.5845 2.50735 16.5308 1.49999 15.2307 1.49999C13.9306 1.49999 12.8767 2.50735 12.8767 3.74998C12.8767 4.58647 13.3543 5.31633 14.063 5.7041C13.3344 7.77567 12.6518 9.47967 11.9749 11.1255C9.6838 10.0091 7.37638 8.92202 5.07066 8.03406L6.71778 2.99582ZM4.69835 9.1729C6.95719 10.048 9.22716 11.1205 11.516 12.2368C11.008 13.4651 10.498 14.7 9.97062 16.0694L8.15383 15.21C8.1639 15.1414 8.16908 15.0713 8.16908 15C8.16908 14.1716 7.4665 13.5 6.59981 13.5C5.73313 13.5 5.03054 14.1716 5.03054 15C5.03054 15.8284 5.73313 16.5 6.59981 16.5C6.93523 16.5 7.24606 16.3994 7.50112 16.228L9.54513 17.1951C9.15035 18.2597 8.74397 19.4154 8.31985 20.7128C8.21737 21.0262 8.40015 21.3597 8.72806 21.4577C9.05597 21.5557 9.40488 21.381 9.50734 21.0675C9.90859 19.8403 10.2936 18.7416 10.6682 17.7264L14.5499 19.5627C13.8421 21.1229 13.1733 22.6878 12.6266 24.1277L1.34783 19.4216L4.69835 9.1729ZM15.0508 18.4728L11.0921 16.5999C11.6149 15.2371 12.1214 14.0079 12.6286 12.7815C12.7547 12.8434 12.8809 12.9054 13.0071 12.9673L13.0141 12.9708L13.0301 12.9787L13.0304 12.9788L13.0308 12.979C14.2868 13.5958 15.5491 14.2156 16.8146 14.8102C16.2437 15.9603 15.6407 17.2048 15.0508 18.4728Z"
          fill="white"/>
</svg>
